<?xml version="1.0"?>
<svg width="30" height="36" xmlns="http://www.w3.org/2000/svg" xmlns:svg="http://www.w3.org/2000/svg">
 <defs>
  <linearGradient id="paint0_linear_120_1360" x1="0.5" x2="0.5" y1="0" y2="1">
   <stop stop-color="#bef3f5"/>
   <stop offset="0.46" stop-color="#5CE1E6"/>
   <stop offset="1" stop-color="#33bbcf"/>
  </linearGradient>
 </defs>
 <g class="layer">
  <title>Layer 1</title>
  <path clip-rule="evenodd" d="m27.83,18c0,7.09 -5.74,12.83 -12.83,12.83c-7.09,0 -12.83,-5.74 -12.83,-12.83c0,-7.09 5.74,-12.83 12.83,-12.83c7.09,0 12.83,5.74 12.83,12.83zm2.17,0c0,8.28 -6.72,15 -15,15c-8.28,0 -15,-6.72 -15,-15c0,-8.28 6.72,-15 15,-15c8.28,0 15,6.72 15,15zm-6.72,-6.72c0,0.85 -0.7,1.55 -1.56,1.55c-0.85,0 -1.55,-0.7 -1.55,-1.55c0,-0.86 0.7,-1.56 1.55,-1.56c0.86,0 1.56,0.7 1.56,1.56zm-12.79,7.93c0.67,2.49 3.23,3.97 5.72,3.3c2.49,-0.67 3.97,-3.23 3.3,-5.72c-0.67,-2.49 -3.23,-3.97 -5.72,-3.3c-2.49,0.67 -3.97,3.23 -3.3,5.72zm-2.09,0.56c0.97,3.65 4.72,5.81 8.37,4.83c3.65,-0.97 5.81,-4.72 4.83,-8.37c-0.97,-3.65 -4.72,-5.81 -8.37,-4.83c-3.65,0.97 -5.81,4.72 -4.83,8.37z" fill="url(#paint0_linear_120_1360)" fill-rule="evenodd" id="svg_1"/>
  <path d="m46.74,28.4c-1.53,0 -2.88,-0.28 -4.05,-0.82c-1.17,-0.55 -2.08,-1.33 -2.74,-2.35c-0.66,-1.02 -0.99,-2.24 -0.99,-3.68l0,-0.79l3.68,0l0,0.79c0,1.19 0.36,2.09 1.1,2.69c0.74,0.58 1.73,0.88 3,0.88c1.28,0 2.23,-0.26 2.85,-0.77c0.64,-0.51 0.96,-1.16 0.96,-1.95c0,-0.55 -0.16,-0.99 -0.48,-1.33c-0.3,-0.34 -0.75,-0.61 -1.35,-0.82c-0.59,-0.22 -1.3,-0.43 -2.15,-0.62l-0.65,-0.14c-1.36,-0.3 -2.53,-0.68 -3.51,-1.13c-0.96,-0.47 -1.71,-1.09 -2.23,-1.84c-0.51,-0.75 -0.77,-1.73 -0.77,-2.94c0,-1.21 0.29,-2.23 0.85,-3.08c0.59,-0.87 1.4,-1.53 2.43,-1.98c1.06,-0.47 2.29,-0.71 3.71,-0.71c1.41,0 2.66,0.25 3.76,0.74c1.11,0.47 1.98,1.18 2.6,2.15c0.64,0.94 0.96,2.13 0.96,3.56l0,0.85l-3.67,0l0,-0.85c0,-0.76 -0.16,-1.36 -0.46,-1.81c-0.28,-0.47 -0.69,-0.81 -1.24,-1.02c-0.55,-0.23 -1.2,-0.34 -1.95,-0.34c-1.13,0 -1.97,0.22 -2.52,0.65c-0.53,0.42 -0.79,0.99 -0.79,1.73c0,0.49 0.12,0.9 0.37,1.24c0.26,0.34 0.65,0.62 1.16,0.85c0.51,0.23 1.16,0.42 1.95,0.59l0.65,0.14c1.41,0.31 2.64,0.69 3.67,1.16c1.06,0.47 1.88,1.1 2.46,1.87c0.59,0.77 0.88,1.76 0.88,2.97c0,1.2 -0.31,2.27 -0.93,3.19c-0.61,0.91 -1.47,1.62 -2.6,2.15c-1.12,0.51 -2.44,0.77 -3.96,0.77zm9.54,-0.4l0,-14.02l3.5,0l0,1.83l0.51,0c0.23,-0.49 0.65,-0.95 1.28,-1.38c0.62,-0.45 1.56,-0.68 2.82,-0.68c1.1,0 2.05,0.25 2.86,0.76c0.83,0.49 1.47,1.18 1.92,2.07c0.45,0.86 0.68,1.88 0.68,3.05l0,8.37l-3.56,0l0,-8.09c0,-1.05 -0.27,-1.84 -0.79,-2.37c-0.51,-0.53 -1.25,-0.79 -2.21,-0.79c-1.09,0 -1.94,0.36 -2.54,1.1c-0.61,0.72 -0.91,1.72 -0.91,3.02l0,7.13l-3.56,0zm20.93,0.4c-1,0 -1.9,-0.17 -2.69,-0.51c-0.79,-0.36 -1.42,-0.87 -1.89,-1.53c-0.46,-0.68 -0.68,-1.5 -0.68,-2.46c0,-0.96 0.22,-1.76 0.68,-2.4c0.47,-0.66 1.11,-1.15 1.92,-1.47c0.83,-0.34 1.77,-0.51 2.83,-0.51l3.84,0l0,-0.79c0,-0.66 -0.2,-1.2 -0.62,-1.62c-0.41,-0.43 -1.07,-0.65 -1.98,-0.65c-0.88,0 -1.54,0.21 -1.98,0.63c-0.43,0.39 -0.71,0.91 -0.85,1.55l-3.28,-1.1c0.23,-0.72 0.59,-1.37 1.08,-1.95c0.51,-0.61 1.18,-1.09 2.01,-1.44c0.84,-0.38 1.87,-0.57 3.08,-0.57c1.85,0 3.31,0.46 4.38,1.39c1.07,0.92 1.61,2.26 1.61,4.01l0,5.23c0,0.57 0.27,0.85 0.79,0.85l1.13,0l0,2.94l-2.37,0c-0.7,0 -1.27,-0.17 -1.72,-0.51c-0.46,-0.34 -0.68,-0.79 -0.68,-1.36l0,-0.02l-0.54,0c-0.08,0.22 -0.25,0.52 -0.51,0.9c-0.26,0.36 -0.68,0.68 -1.24,0.96c-0.57,0.28 -1.34,0.43 -2.32,0.43zm0.62,-2.89c1,0 1.81,-0.27 2.43,-0.82c0.64,-0.56 0.96,-1.31 0.96,-2.23l0,-0.28l-3.59,0c-0.66,0 -1.18,0.14 -1.55,0.42c-0.38,0.28 -0.57,0.68 -0.57,1.19c0,0.51 0.2,0.92 0.59,1.24c0.4,0.32 0.98,0.48 1.73,0.48zm10.52,8.15l0,-19.68l3.51,0l0,1.69l0.51,0c0.32,-0.54 0.82,-1.03 1.49,-1.44c0.68,-0.43 1.65,-0.65 2.92,-0.65c1.13,0 2.17,0.28 3.14,0.85c0.96,0.54 1.73,1.36 2.31,2.43c0.59,1.07 0.88,2.37 0.88,3.9l0,0.45c0,1.53 -0.29,2.83 -0.88,3.91c-0.58,1.07 -1.35,1.89 -2.31,2.46c-0.97,0.54 -2.01,0.82 -3.14,0.82c-0.85,0 -1.57,-0.11 -2.15,-0.32c-0.57,-0.18 -1.03,-0.43 -1.39,-0.73c-0.34,-0.32 -0.61,-0.64 -0.82,-0.96l-0.51,0l0,7.27l-3.56,0zm7.35,-8.37c1.11,0 2.03,-0.35 2.75,-1.05c0.73,-0.72 1.1,-1.75 1.1,-3.11l0,-0.28c0,-1.36 -0.37,-2.39 -1.1,-3.09c-0.74,-0.71 -1.65,-1.07 -2.75,-1.07c-1.09,0 -2,0.36 -2.74,1.07c-0.73,0.7 -1.1,1.73 -1.1,3.09l0,0.28c0,1.36 0.37,2.39 1.1,3.11c0.74,0.7 1.65,1.05 2.74,1.05zm9.16,-4.25l0,-0.45c0,-1.47 0.29,-2.72 0.87,-3.76c0.59,-1.05 1.36,-1.86 2.32,-2.4c0.98,-0.57 2.05,-0.85 3.2,-0.85c1.28,0 2.25,0.23 2.91,0.68c0.66,0.45 1.14,0.92 1.44,1.41l0.51,0l0,-1.69l3.5,0l0,16.51c0,0.96 -0.28,1.72 -0.84,2.29c-0.57,0.58 -1.32,0.88 -2.27,0.88l-9.38,0l0,-3.12l8.14,0c0.53,0 0.79,-0.28 0.79,-0.84l0,-3.65l-0.51,0c-0.18,0.3 -0.45,0.61 -0.79,0.93c-0.34,0.3 -0.79,0.56 -1.36,0.77c-0.56,0.2 -1.28,0.31 -2.14,0.31c-1.15,0 -2.22,-0.28 -3.2,-0.82c-0.96,-0.57 -1.73,-1.37 -2.32,-2.41c-0.58,-1.05 -0.87,-2.32 -0.87,-3.79zm7.4,3.91c1.1,0 2.01,-0.35 2.75,-1.05c0.73,-0.7 1.1,-1.68 1.1,-2.94l0,-0.28c0,-1.29 -0.37,-2.27 -1.1,-2.94c-0.72,-0.7 -1.63,-1.05 -2.75,-1.05c-1.09,0 -2,0.35 -2.74,1.05c-0.73,0.67 -1.1,1.65 -1.1,2.94l0,0.28c0,1.26 0.37,2.24 1.1,2.94c0.74,0.7 1.65,1.05 2.74,1.05zm10.46,3.05l0,-14.02l3.5,0l0,1.58l0.51,0c0.21,-0.57 0.55,-0.98 1.02,-1.25c0.49,-0.26 1.06,-0.39 1.7,-0.39l1.69,0l0,3.17l-1.75,0c-0.9,0 -1.65,0.24 -2.23,0.73c-0.59,0.47 -0.88,1.21 -0.88,2.21l0,7.97l-3.56,0zm14.38,0.4c-1,0 -1.89,-0.17 -2.68,-0.51c-0.8,-0.36 -1.43,-0.87 -1.9,-1.53c-0.45,-0.68 -0.68,-1.5 -0.68,-2.46c0,-0.96 0.23,-1.76 0.68,-2.4c0.47,-0.66 1.11,-1.15 1.92,-1.47c0.83,-0.34 1.78,-0.51 2.83,-0.51l3.85,0l0,-0.79c0,-0.66 -0.21,-1.2 -0.62,-1.62c-0.42,-0.43 -1.08,-0.65 -1.99,-0.65c-0.88,0 -1.54,0.21 -1.97,0.63c-0.44,0.39 -0.72,0.91 -0.85,1.55l-3.28,-1.1c0.22,-0.72 0.58,-1.37 1.07,-1.95c0.51,-0.61 1.18,-1.09 2.01,-1.44c0.85,-0.38 1.88,-0.57 3.08,-0.57c1.85,0 3.31,0.46 4.39,1.39c1.07,0.92 1.61,2.26 1.61,4.01l0,5.23c0,0.57 0.26,0.85 0.79,0.85l1.13,0l0,2.94l-2.38,0c-0.69,0 -1.27,-0.17 -1.72,-0.51c-0.45,-0.34 -0.68,-0.79 -0.68,-1.36l0,-0.02l-0.54,0c-0.07,0.22 -0.24,0.52 -0.51,0.9c-0.26,0.36 -0.67,0.68 -1.24,0.96c-0.57,0.28 -1.34,0.43 -2.32,0.43zm0.62,-2.89c1,0 1.81,-0.27 2.44,-0.82c0.64,-0.56 0.96,-1.31 0.96,-2.23l0,-0.28l-3.59,0c-0.66,0 -1.18,0.14 -1.56,0.42c-0.38,0.28 -0.56,0.68 -0.56,1.19c0,0.51 0.19,0.92 0.59,1.24c0.4,0.32 0.97,0.48 1.72,0.48zm10.53,2.49l0,-14.02l3.5,0l0,1.52l0.51,0c0.25,-0.47 0.65,-0.87 1.22,-1.21c0.56,-0.36 1.31,-0.54 2.23,-0.54c1,0 1.8,0.2 2.4,0.59c0.61,0.38 1.07,0.88 1.39,1.5l0.51,0c0.32,-0.6 0.77,-1.1 1.36,-1.5c0.58,-0.39 1.41,-0.59 2.48,-0.59c0.87,0 1.65,0.19 2.35,0.56c0.72,0.36 1.28,0.92 1.7,1.67c0.43,0.74 0.65,1.67 0.65,2.8l0,9.22l-3.57,0l0,-8.96c0,-0.78 -0.19,-1.35 -0.59,-1.73c-0.39,-0.39 -0.95,-0.59 -1.67,-0.59c-0.81,0 -1.44,0.26 -1.89,0.79c-0.44,0.51 -0.65,1.24 -0.65,2.21l0,8.28l-3.56,0l0,-8.96c0,-0.78 -0.2,-1.35 -0.6,-1.73c-0.39,-0.39 -0.95,-0.59 -1.67,-0.59c-0.81,0 -1.44,0.26 -1.89,0.79c-0.43,0.51 -0.65,1.24 -0.65,2.21l0,8.28l-3.56,0z" fill="white" id="svg_2"/>
 </g>
</svg>